<svg width="59" height="15" viewBox="0 0 59 15" fill="none" xmlns="http://www.w3.org/2000/svg">
<path fill-rule="evenodd" clip-rule="evenodd" d="M22.7019 13.6372C21.5336 14.2684 20.2175 14.584 18.7537 14.584C17.29 14.584 15.9706 14.2684 14.7955 13.6372C13.6205 13.0061 12.7006 12.1365 12.0358 11.0286C11.3711 9.92075 11.0387 8.6752 11.0387 7.292C11.0387 5.9088 11.3711 4.66325 12.0358 3.55535C12.7006 2.44745 13.6205 1.57792 14.7955 0.946751C15.9706 0.315584 17.29 0 18.7537 0C20.2175 0 21.5336 0.315584 22.7019 0.946751C23.8702 1.57792 24.7901 2.44745 25.4616 3.55535C26.133 4.66325 26.4688 5.9088 26.4688 7.292C26.4688 8.6752 26.133 9.92075 25.4616 11.0286C24.7901 12.1365 23.8702 13.0061 22.7019 13.6372ZM10.3337 11.6833V14.3423H0V0.241724H3.26327V11.6833H10.3337ZM18.7537 11.8042C17.9211 11.8042 17.1691 11.6128 16.4976 11.2301C15.8262 10.8474 15.2991 10.3135 14.9164 9.62866C14.5336 8.94378 14.3423 8.16489 14.3423 7.292C14.3423 6.41911 14.5336 5.64022 14.9164 4.95534C15.2991 4.27045 15.8262 3.73665 16.4976 3.35392C17.1691 2.97119 17.9211 2.77982 18.7537 2.77982C19.5863 2.77982 20.3384 2.97119 21.0098 3.35392C21.6813 3.73665 22.2084 4.27045 22.5911 4.95534C22.9738 5.64022 23.1652 6.41911 23.1652 7.292C23.1652 8.16489 22.9738 8.94378 22.5911 9.62866C22.2084 10.3135 21.6813 10.8474 21.0098 11.2301C20.3384 11.6128 19.5863 11.8042 18.7537 11.8042ZM38.7765 14.1207C37.7693 14.4296 36.7554 14.584 35.7348 14.584C34.2711 14.584 32.955 14.2718 31.7867 13.6473C30.6183 13.0229 29.7018 12.1567 29.0371 11.0488C28.3723 9.94089 28.04 8.68863 28.04 7.292C28.04 5.89537 28.3723 4.64311 29.0371 3.53521C29.7018 2.42731 30.6251 1.56113 31.8068 0.93668C32.9886 0.312226 34.3181 0 35.7953 0C37.0307 0 38.1521 0.208151 39.1592 0.624453C40.1664 1.04076 41.0125 1.64506 41.6973 2.43738L39.6024 4.37117C38.5952 3.31027 37.3799 2.77982 35.9564 2.77982C35.0567 2.77982 34.2576 2.96783 33.5593 3.34385C32.861 3.71986 32.3171 4.25031 31.9277 4.93519C31.5382 5.62008 31.3435 6.40568 31.3435 7.292C31.3435 8.16489 31.5382 8.94378 31.9277 9.62866C32.3171 10.3135 32.8576 10.8474 33.5492 11.2301C34.2408 11.6128 35.0298 11.8042 35.9161 11.8042C36.8562 11.8042 37.7022 11.6027 38.4542 11.1999V7.07042H41.4355V12.7912C40.67 13.3687 39.7837 13.8118 38.7765 14.1207ZM51.2857 14.584C52.7495 14.584 54.0655 14.2684 55.2339 13.6372C56.4022 13.0061 57.3221 12.1365 57.9936 11.0286C58.665 9.92075 59.0007 8.6752 59.0007 7.292C59.0007 5.9088 58.665 4.66325 57.9936 3.55535C57.3221 2.44745 56.4022 1.57792 55.2339 0.946751C54.0655 0.315584 52.7495 0 51.2857 0C49.8219 0 48.5025 0.315584 47.3275 0.946751C46.1525 1.57792 45.2326 2.44745 44.5678 3.55535C43.9031 4.66325 43.5707 5.9088 43.5707 7.292C43.5707 8.6752 43.9031 9.92075 44.5678 11.0286C45.2326 12.1365 46.1525 13.0061 47.3275 13.6372C48.5025 14.2684 49.8219 14.584 51.2857 14.584ZM49.0296 11.2301C49.7011 11.6128 50.4531 11.8042 51.2857 11.8042C52.1183 11.8042 52.8704 11.6128 53.5418 11.2301C54.2133 10.8474 54.7404 10.3135 55.1231 9.62866C55.5058 8.94378 55.6972 8.16489 55.6972 7.292C55.6972 6.41911 55.5058 5.64022 55.1231 4.95534C54.7404 4.27045 54.2133 3.73665 53.5418 3.35392C52.8704 2.97119 52.1183 2.77982 51.2857 2.77982C50.4531 2.77982 49.7011 2.97119 49.0296 3.35392C48.3582 3.73665 47.8311 4.27045 47.4484 4.95534C47.0656 5.64022 46.8743 6.41911 46.8743 7.292C46.8743 8.16489 47.0656 8.94378 47.4484 9.62866C47.8311 10.3135 48.3582 10.8474 49.0296 11.2301Z" fill="url(#paint0_linear_928_116)"/>
<defs>
<linearGradient id="paint0_linear_928_116" x1="86.6498" y1="6.8344" x2="79.4424" y2="-20.494" gradientUnits="userSpaceOnUse">
<stop stop-color="#4E60EB" stop-opacity="0.9"/>
<stop offset="1" stop-color="#C13BD8" stop-opacity="0.9"/>
</linearGradient>
</defs>
</svg>
