<svg width="16" height="16" viewBox="0 0 16 16" fill="none" xmlns="http://www.w3.org/2000/svg">
<path fill-rule="evenodd" clip-rule="evenodd" d="M0 8C0 3.58172 3.58172 0 8 0C10.1217 0 12.1566 0.842855 13.6569 2.34315C15.1571 3.84344 16 5.87827 16 8C16 12.4183 12.4183 16 8 16C3.58172 16 0 12.4183 0 8ZM12.7197 8.12216C12.7823 7.9962 12.8093 7.85375 12.7972 7.71197V7.05566C12.7972 6.60257 12.45 6.23527 12.0218 6.23527H8.46286L8.91258 3.43775V3.27367C8.90352 3.05871 8.82084 2.85459 8.67996 2.6994L8.14496 2.13333L4.57825 6.23527C4.36587 6.44717 4.25242 6.74724 4.2681 7.05566V11.1576C4.2681 12.0638 4.96239 12.7984 5.81884 12.7984H10.0834C10.5158 12.8232 10.9175 12.5617 11.0914 12.1421L12.7197 8.12216Z" fill="url(#paint0_linear_18_188)"/>
<defs>
<linearGradient id="paint0_linear_18_188" x1="-6.20821" y1="6.20821" x2="6.20821" y2="22.2082" gradientUnits="userSpaceOnUse">
<stop stop-color="#406AE7" stop-opacity="0.9"/>
<stop offset="1" stop-color="#C63AD6" stop-opacity="0.9"/>
</linearGradient>
</defs>
</svg>
