<svg width="26" height="16" viewBox="0 0 26 16" fill="none" xmlns="http://www.w3.org/2000/svg">
<path fill-rule="evenodd" clip-rule="evenodd" d="M11.58 3.5C11.58 5.43667 10.0258 7 8.08586 7C6.14596 7 4.58002 5.43667 4.58002 3.5C4.58002 1.56333 6.14596 0 8.08586 0C10.0258 0 11.58 1.56333 11.58 3.5ZM21.58 3.5C21.58 5.43667 20.0258 7 18.0859 7C16.146 7 14.58 5.43667 14.58 3.5C14.58 1.56333 16.146 0 18.0859 0C20.0258 0 21.58 1.56333 21.58 3.5ZM8.58002 9C5.91716 9 0.580017 10.365 0.580017 13.0833V16H16.58V13.0833C16.58 10.365 11.2429 9 8.58002 9ZM16.58 9.05833C16.9752 9.02333 17.3479 9 17.6754 9C20.3065 9 25.58 10.365 25.58 13.0833V16H18.8046V13.0833C18.8046 11.3567 17.8899 10.0383 16.58 9.05833Z" fill="url(#paint0_linear_1046_80)"/>
<defs>
<linearGradient id="paint0_linear_1046_80" x1="-9.12031" y1="6.20821" x2="1.09253" y2="26.7714" gradientUnits="userSpaceOnUse">
<stop stop-color="#406AE7" stop-opacity="0.9"/>
<stop offset="1" stop-color="#C63AD6" stop-opacity="0.9"/>
</linearGradient>
</defs>
</svg>
