<svg width="18" height="19" viewBox="0 0 18 19" fill="none" xmlns="http://www.w3.org/2000/svg">
<path fill-rule="evenodd" clip-rule="evenodd" d="M17.1321 9.25393C17.0567 9.41031 17.0567 9.58969 17.1321 9.7461L17.8318 11.1958C18.2213 12.0029 17.9127 12.965 17.1291 13.3861L15.7219 14.1424C15.5701 14.224 15.466 14.3691 15.4363 14.5405L15.161 16.1298C15.0077 17.0147 14.2 17.6094 13.3214 17.4835L11.744 17.2575C11.5739 17.2333 11.4055 17.2886 11.2819 17.4096L10.1369 18.5315C9.81821 18.8438 9.409 19 9 19C8.59089 19 8.18193 18.8439 7.86311 18.5315L6.71812 17.4096C6.59457 17.2886 6.42611 17.2331 6.25599 17.2575L4.67859 17.4835C4.59986 17.4948 4.52153 17.5003 4.44433 17.5003C3.66052 17.5004 2.97853 16.9354 2.83901 16.1298L2.56378 14.5405C2.53407 14.3691 2.42998 14.2239 2.27815 14.1424L0.870862 13.3861C0.0873098 12.965 -0.221333 12.003 0.168208 11.1958L0.867857 9.74618C0.943333 9.5898 0.943333 9.41042 0.867857 9.254L0.168244 7.80438C-0.221297 6.99722 0.0873464 6.0351 0.870898 5.61406L2.27818 4.85778C2.42998 4.77618 2.53407 4.63104 2.56378 4.4596L2.83901 2.87034C2.99227 1.98544 3.80015 1.39073 4.67856 1.51664L6.25596 1.74263C6.42618 1.7669 6.59453 1.71157 6.71808 1.59052L7.86311 0.468533C8.50062 -0.156196 9.49938 -0.156159 10.1369 0.468533L11.2819 1.59041C11.4054 1.71142 11.5738 1.76686 11.744 1.74252L13.3214 1.51653C14.1996 1.39069 15.0077 1.98532 15.161 2.87022L15.4362 4.45956C15.4659 4.63097 15.57 4.77614 15.7219 4.85771L17.1291 5.61399C17.9127 6.03506 18.2213 6.99711 17.8318 7.80427L17.1321 9.25393ZM8.00252 7.05687C8.00252 6.18383 7.29597 5.47354 6.42752 5.47354C5.55907 5.47354 4.85252 6.18383 4.85252 7.05687C4.85252 7.92991 5.55907 8.6402 6.42752 8.6402C7.29597 8.6402 8.00252 7.92991 8.00252 7.05687ZM5.81226 13.5035C5.70664 13.6105 5.56818 13.664 5.42976 13.664C5.29134 13.664 5.15284 13.6105 5.04725 13.5035C4.83599 13.2895 4.83599 12.9426 5.04725 12.7286L12.1877 5.4965C12.3989 5.28253 12.7415 5.28253 12.9527 5.4965C13.164 5.71047 13.164 6.0574 12.9527 6.27137L5.81226 13.5035ZM10.0803 11.9965C10.0803 12.8696 10.7868 13.5799 11.6553 13.5799C12.5237 13.5799 13.2303 12.8696 13.2303 11.9965C13.2303 11.1235 12.5237 10.4132 11.6553 10.4132C10.7868 10.4132 10.0803 11.1235 10.0803 11.9965Z" fill="url(#paint0_linear_1046_75)"/>
<defs>
<linearGradient id="paint0_linear_1046_75" x1="6.98423" y1="26.3722" x2="25.7054" y2="12.6087" gradientUnits="userSpaceOnUse">
<stop stop-color="#406AE7" stop-opacity="0.9"/>
<stop offset="1" stop-color="#C63AD6" stop-opacity="0.9"/>
</linearGradient>
</defs>
</svg>
